<?xml version="1.0" standalone="no"?>
<!DOCTYPE svg PUBLIC "-//W3C//DTD SVG 20010904//EN"
 "http://www.w3.org/TR/2001/REC-SVG-20010904/DTD/svg10.dtd">
<svg version="1.0" xmlns="http://www.w3.org/2000/svg"
 width="903.000000pt" height="903.000000pt" viewBox="0 0 903.000000 903.000000"
 preserveAspectRatio="xMidYMid meet">
<metadata>
Created by potrace 1.14, written by Peter Selinger 2001-2017
</metadata>
<g transform="translate(0.000000,903.000000) scale(0.100000,-0.100000)"
fill="#000000" stroke="none">
<path d="M4486 5977 c3 -8 0 -18 -6 -22 -6 -3 -9 -1 -8 6 2 7 -9 14 -25 15
-18 2 -25 -1 -21 -8 4 -7 2 -8 -5 -4 -17 11 -61 15 -56 5 3 -4 0 -11 -6 -15
-7 -4 -9 -3 -5 4 10 17 -13 25 -31 10 -14 -11 -16 -11 -8 2 7 13 6 13 -7 2
-13 -10 -17 -10 -21 0 -4 11 -9 10 -27 0 -18 -11 -24 -11 -31 -1 -6 10 -11 10
-22 0 -12 -9 -16 -9 -19 0 -3 8 -9 9 -19 4 -8 -5 -25 -11 -39 -12 -20 -3 -22
-1 -10 8 13 9 12 10 -3 5 -10 -3 -21 -6 -24 -6 -3 0 -2 -6 3 -13 5 -7 1 -4 -8
6 -15 16 -18 16 -18 4 0 -9 -5 -19 -10 -22 -6 -4 -9 -1 -8 5 2 7 -5 14 -15 15
-9 2 -15 -1 -12 -5 3 -5 1 -11 -5 -15 -5 -3 -10 1 -10 9 0 9 -5 16 -11 16 -5
0 -8 -4 -5 -9 4 -5 -4 -7 -16 -3 -12 3 -19 1 -15 -5 3 -5 0 -10 -8 -10 -8 0
-12 4 -9 9 8 13 -10 10 -25 -4 -8 -8 -11 -8 -8 -2 4 7 -3 12 -18 12 -16 0 -22
-5 -18 -12 4 -6 0 -6 -9 2 -12 10 -18 9 -28 -3 -7 -8 -18 -15 -24 -14 -7 0 -6
2 2 6 18 7 14 19 -7 19 -11 0 -17 -4 -14 -10 4 -5 -5 -6 -21 -2 -20 5 -26 4
-20 -5 4 -7 3 -9 -4 -5 -5 3 -12 3 -15 -1 -2 -5 -2 -3 -1 4 2 7 -2 15 -8 19
-6 4 -9 3 -5 -2 3 -5 -6 -14 -19 -21 -13 -6 -22 -8 -19 -3 3 4 -2 10 -10 14
-8 3 -14 2 -14 -2 3 -19 -2 -25 -11 -12 -8 13 -11 13 -22 1 -11 -11 -11 -13 1
-6 10 6 12 4 6 -5 -6 -10 -11 -9 -22 5 -7 11 -13 14 -13 8 0 -6 -7 -14 -16
-17 -14 -5 -15 -4 -5 8 9 11 9 16 0 22 -7 4 -10 3 -7 -2 3 -5 -4 -18 -15 -28
-14 -14 -19 -15 -15 -4 4 8 1 15 -8 15 -7 0 -10 -5 -7 -10 4 -6 0 -8 -10 -4
-10 4 -17 1 -17 -6 0 -7 -5 -4 -11 6 -10 18 -11 18 -32 0 -14 -12 -18 -13 -12
-3 7 12 6 13 -6 3 -12 -10 -18 -10 -29 0 -7 6 -10 7 -7 2 3 -6 -3 -17 -15 -24
-11 -7 -17 -8 -14 -3 3 5 -2 16 -11 23 -9 8 -14 9 -10 3 8 -14 -9 -21 -45 -19
-15 1 -25 -2 -22 -6 2 -4 -5 -8 -16 -8 -11 -1 -29 -1 -40 -2 -11 0 -20 -4 -20
-9 0 -10 -20 -8 -39 4 -10 6 -12 5 -7 -2 4 -7 3 -12 -3 -12 -5 0 -12 6 -15 13
-4 6 -4 1 -2 -13 4 -21 3 -23 -7 -9 -13 17 -50 22 -40 6 4 -6 0 -8 -9 -4 -9 3
-21 0 -27 -6 -8 -8 -11 -8 -11 2 0 7 -5 9 -10 6 -6 -4 -8 -12 -4 -18 3 -7 -2
-3 -10 7 -14 17 -16 17 -16 3 0 -10 -5 -14 -15 -11 -9 4 -15 0 -15 -7 0 -11
-3 -11 -11 1 -8 12 -12 12 -16 2 -4 -9 -8 -10 -18 -2 -10 8 -15 8 -21 -1 -5
-8 -3 -9 6 -4 9 6 11 4 5 -5 -6 -10 -11 -9 -22 5 -12 18 -13 17 -13 -6 0 -13
-4 -19 -8 -14 -13 18 -35 17 -28 -1 5 -13 4 -14 -7 -6 -8 7 -16 10 -19 7 -3
-3 -22 -6 -42 -7 -20 -1 -40 -6 -43 -11 -3 -6 -1 -7 5 -3 6 3 13 2 16 -3 9
-14 -19 -7 -40 9 -11 9 -15 10 -10 3 4 -8 2 -13 -4 -13 -6 0 -8 -4 -5 -10 3
-6 -1 -7 -9 -4 -9 3 -13 11 -9 17 4 6 1 7 -6 3 -7 -5 -10 -14 -7 -21 3 -10 -2
-11 -22 -6 -19 5 -31 3 -40 -8 -10 -12 -15 -13 -18 -4 -4 10 -9 9 -21 -2 -8
-8 -19 -12 -24 -9 -6 3 -20 -2 -32 -13 -21 -18 -21 -18 -7 1 10 13 11 17 2 12
-7 -4 -21 -2 -30 5 -14 11 -15 11 -4 -1 16 -18 15 -27 -4 -34 -8 -3 -12 -2 -9
4 3 6 -1 10 -10 10 -9 0 -13 -4 -10 -10 3 -5 2 -10 -4 -10 -5 0 -12 6 -14 13
-3 7 -6 4 -6 -7 -1 -15 -4 -16 -15 -7 -10 8 -16 9 -21 1 -3 -6 -10 -8 -15 -5
-5 3 -11 1 -15 -5 -4 -6 -11 -7 -17 -4 -7 5 -9 2 -6 -8 5 -12 -1 -15 -28 -13
-23 1 -34 -3 -34 -12 0 -8 -5 -11 -10 -8 -6 4 -8 11 -5 16 10 15 -2 10 -16 -8
-12 -15 -12 -16 1 -8 8 4 12 4 7 0 -10 -12 -39 -16 -32 -5 3 5 0 12 -6 16 -7
4 -9 3 -6 -3 4 -6 -3 -19 -16 -29 -18 -16 -19 -16 -8 -1 17 21 13 21 -27 1
-18 -8 -36 -13 -41 -10 -5 3 -7 -4 -5 -16 2 -13 2 -17 -2 -10 -6 14 -34 17
-34 3 0 -5 -8 -11 -17 -15 -10 -3 -25 -9 -33 -13 -13 -5 -13 -4 0 13 14 19 14
19 -7 0 -13 -11 -29 -16 -39 -12 -14 5 -15 4 -5 -8 9 -11 8 -14 -6 -12 -10 0
-17 -4 -16 -10 1 -7 -8 -9 -24 -6 -17 3 -24 1 -19 -6 4 -6 -2 -8 -14 -5 -11 3
-20 0 -20 -6 0 -6 -5 -11 -11 -11 -5 0 -7 6 -3 13 5 8 3 8 -9 -2 -9 -7 -14
-17 -11 -22 3 -5 -2 -6 -10 -3 -9 3 -16 1 -16 -5 0 -6 -4 -11 -10 -11 -5 0 -6
8 -3 17 5 12 1 11 -15 -5 -12 -12 -27 -22 -33 -22 -5 0 -7 -5 -3 -11 5 -8 2
-9 -12 -1 -14 8 -24 5 -47 -14 -16 -13 -34 -21 -40 -17 -7 4 -5 -2 3 -12 15
-19 14 -19 -12 -2 -25 16 -27 16 -21 0 5 -13 2 -15 -11 -10 -10 4 -15 3 -11
-3 6 -9 -8 -14 -28 -11 -5 1 -6 -3 -2 -8 3 -6 -5 -15 -17 -22 -22 -12 -22 -11
-8 7 14 19 14 19 -8 0 -17 -15 -19 -22 -10 -28 8 -6 5 -7 -10 -3 -16 5 -28 1
-38 -12 -9 -10 -12 -12 -8 -4 5 9 3 12 -4 7 -7 -4 -12 -15 -12 -24 -1 -15 -3
-14 -16 3 -16 20 -16 20 -10 -2 4 -12 2 -24 -5 -29 -8 -4 -9 -3 -5 4 13 22
-11 12 -28 -10 -9 -13 -14 -16 -11 -8 4 8 -2 4 -14 -10 -11 -14 -28 -25 -38
-25 -10 0 -17 -6 -15 -13 1 -8 -2 -11 -8 -7 -5 3 -10 1 -10 -4 0 -6 -5 -11
-11 -11 -5 0 -7 5 -3 12 5 7 3 8 -5 3 -7 -4 -10 -17 -7 -29 5 -21 5 -21 -11
-1 -15 20 -15 20 -10 -2 5 -24 -8 -32 -16 -10 -3 7 -6 4 -6 -6 -1 -11 -5 -15
-13 -11 -7 5 -9 2 -6 -8 5 -11 0 -14 -18 -12 -22 2 -23 0 -12 -14 11 -13 10
-15 -9 -10 -16 4 -20 2 -16 -10 4 -9 2 -13 -4 -9 -6 4 -17 -1 -24 -10 -12 -14
-12 -16 0 -8 10 5 12 4 7 -4 -4 -6 -12 -9 -17 -6 -5 4 -9 -2 -9 -12 0 -15 -2
-16 -10 -3 -8 13 -10 13 -10 -2 0 -10 -13 -27 -29 -39 -16 -11 -35 -32 -42
-45 -7 -13 -19 -24 -28 -24 -14 0 -14 -2 -1 -10 13 -8 12 -10 -2 -10 -10 0
-18 -5 -18 -11 0 -5 -4 -7 -10 -4 -6 4 -7 -1 -3 -11 5 -13 3 -15 -8 -9 -11 7
-11 5 1 -10 13 -16 13 -18 0 -13 -17 5 -43 -38 -33 -56 4 -6 1 -6 -9 2 -13 10
-17 10 -22 -4 -4 -9 -4 -19 -1 -22 3 -3 5 1 5 8 0 7 3 10 6 7 4 -4 1 -13 -6
-22 -10 -12 -16 -13 -28 -3 -12 10 -11 6 3 -15 14 -22 14 -26 3 -22 -9 4 -18
-1 -22 -10 -4 -11 -2 -14 7 -10 6 4 5 1 -4 -7 -17 -15 -34 -52 -19 -43 6 3 7
-1 4 -9 -3 -9 -11 -13 -18 -9 -7 5 -7 2 1 -8 13 -16 1 -45 -14 -36 -5 3 -7 -7
-5 -25 4 -23 2 -29 -8 -23 -10 6 -11 4 -4 -6 13 -21 14 -40 1 -32 -6 4 -8 0
-4 -11 4 -10 1 -19 -8 -22 -8 -4 -12 -11 -9 -16 4 -6 10 -5 15 3 6 10 9 8 9
-8 0 -13 -5 -23 -11 -23 -5 0 -7 -6 -3 -12 12 -19 12 -48 1 -48 -5 0 -3 -8 4
-17 12 -15 12 -16 -4 -10 -11 4 -16 3 -12 -3 3 -6 13 -10 21 -10 14 0 13 -2 0
-16 -19 -19 -20 -25 -3 -19 11 5 15 -12 18 -78 0 -10 5 -15 12 -11 8 5 8 3 0
-7 -7 -7 -13 -18 -13 -23 0 -6 4 -5 8 2 6 9 12 5 21 -14 11 -25 10 -26 -4 -14
-13 11 -15 10 -9 -4 3 -9 11 -16 16 -16 6 0 8 -9 5 -20 -3 -10 -2 -19 2 -18 3
0 13 0 21 -1 13 -1 13 -2 0 -11 -13 -9 -13 -10 0 -10 13 0 13 -1 0 -10 -13 -8
-12 -10 3 -10 10 0 17 -8 17 -21 0 -13 4 -18 13 -13 7 5 7 2 -2 -10 -12 -15
-12 -17 0 -14 8 2 13 -4 13 -15 -2 -13 1 -15 11 -7 10 8 15 8 21 -1 4 -8 3 -9
-4 -5 -7 4 -12 2 -12 -3 0 -6 5 -11 10 -11 6 0 10 -7 10 -16 0 -8 4 -13 9 -10
5 3 12 -1 15 -10 3 -8 2 -12 -3 -9 -5 3 -12 1 -15 -4 -4 -5 5 -8 19 -7 13 2
22 -1 19 -6 -3 -4 8 -20 25 -34 17 -14 31 -32 31 -40 0 -9 4 -13 9 -9 5 3 12
-4 16 -15 4 -11 11 -18 16 -15 5 4 9 1 9 -5 0 -14 25 -40 39 -40 6 0 11 -5 11
-11 0 -5 5 -7 10 -4 6 4 9 1 8 -7 -2 -7 3 -12 11 -10 12 3 12 0 1 -12 -15 -19
0 -21 19 -3 7 6 12 8 11 2 -2 -5 -2 -17 -1 -25 1 -13 2 -13 11 0 8 12 10 11
10 -6 0 -12 7 -25 16 -28 15 -6 15 -4 3 11 -13 16 -12 17 4 4 9 -7 17 -22 17
-33 0 -10 5 -16 10 -13 6 4 7 12 3 18 -4 7 0 6 10 -2 9 -7 17 -20 17 -28 0
-12 3 -13 14 -4 12 10 18 7 31 -13 10 -14 21 -23 27 -20 5 3 12 -3 15 -15 3
-12 9 -21 14 -21 5 0 6 8 4 18 -3 9 1 5 8 -10 11 -23 15 -26 26 -15 11 9 13 9
7 0 -4 -7 -2 -13 3 -13 6 0 11 -8 12 -17 0 -15 2 -15 9 2 7 17 9 17 9 3 1 -12
6 -15 18 -11 12 5 14 3 8 -7 -6 -10 -3 -12 14 -7 17 4 20 3 12 -7 -13 -16 -2
-29 13 -16 7 5 17 5 26 -2 12 -8 12 -9 -3 -4 -11 3 -16 2 -12 -4 3 -6 16 -10
27 -10 11 0 27 -8 35 -18 8 -9 12 -12 9 -5 -4 6 -2 14 4 18 6 3 10 -3 10 -16
0 -18 2 -19 15 -9 13 11 14 10 10 -3 -4 -8 -1 -18 6 -23 8 -4 10 -3 5 4 -4 7
-1 12 8 12 8 0 18 -5 22 -12 4 -7 3 -8 -4 -4 -8 5 -10 2 -6 -9 5 -12 10 -13
19 -5 10 9 16 6 25 -9 8 -17 15 -19 29 -12 14 8 23 5 39 -9 12 -11 28 -20 37
-20 8 0 15 -6 15 -12 0 -9 4 -8 10 2 8 12 10 12 10 -5 0 -15 3 -17 9 -7 6 10
10 8 14 -9 5 -20 8 -21 23 -8 10 8 15 9 11 3 -4 -7 0 -15 9 -18 8 -3 12 -2 9
3 -3 5 -1 13 5 16 6 4 9 1 8 -7 -2 -7 5 -12 14 -12 11 1 15 -4 10 -15 -5 -14
-4 -14 11 -2 11 8 17 9 17 2 0 -6 13 -9 29 -7 21 2 28 0 24 -10 -5 -14 3 -16
55 -17 23 -1 23 -2 5 -15 -16 -12 -15 -13 11 -6 22 5 27 4 21 -6 -5 -8 -4 -11
2 -7 6 4 19 0 29 -7 13 -10 23 -11 31 -4 9 7 13 7 13 0 0 -6 7 -9 15 -6 9 4
18 -1 21 -11 5 -13 9 -14 15 -3 7 10 9 10 9 -2 0 -13 1 -13 10 0 8 13 10 12
10 -3 0 -15 3 -16 20 -7 11 6 20 7 19 3 -3 -21 2 -24 18 -12 11 10 14 10 9 2
-5 -9 1 -13 19 -13 15 0 24 -4 20 -10 -3 -6 1 -10 10 -10 9 0 13 5 10 11 -4 6
2 5 13 -2 12 -7 19 -16 17 -19 -2 -4 2 -7 10 -7 8 0 12 4 9 9 -3 4 0 8 5 8 6
0 11 -4 11 -9 0 -5 11 -8 25 -6 14 1 28 -2 32 -8 4 -6 1 -7 -7 -2 -9 5 -11 4
-6 -4 4 -6 13 -8 19 -4 18 11 36 12 42 3 3 -5 -4 -7 -15 -5 -11 2 -20 0 -20
-6 0 -5 10 -7 23 -5 12 2 28 -1 35 -7 9 -7 11 -5 6 9 -6 16 -4 16 15 -3 23
-24 41 -32 23 -10 -8 10 -6 13 8 13 10 0 17 -3 16 -6 -2 -3 5 -14 16 -25 19
-20 19 -20 12 0 -6 19 -6 19 11 4 13 -13 25 -15 45 -9 21 6 27 5 24 -4 -3 -7
4 -12 15 -12 11 0 18 3 16 6 -2 4 2 7 10 7 8 0 12 -4 9 -9 -3 -4 9 -8 25 -8
18 0 31 -5 31 -12 0 -10 3 -9 9 1 6 9 10 9 12 2 2 -6 23 -12 46 -13 23 -1 40
-5 37 -10 -3 -4 2 -8 11 -8 9 0 14 4 11 8 -3 5 1 9 9 9 8 0 12 -4 9 -9 -3 -4
5 -8 18 -8 13 0 30 -6 37 -12 10 -9 12 -9 7 -1 -3 6 -2 14 4 18 5 3 10 -1 10
-11 0 -14 2 -15 17 -3 11 10 14 10 9 2 -7 -12 7 -18 29 -13 26 6 79 -1 86 -12
6 -9 12 -8 25 3 13 10 16 10 10 1 -5 -9 -3 -13 5 -11 25 3 40 -1 35 -9 -3 -5
1 -9 9 -9 8 0 12 4 9 9 -8 13 10 10 25 -4 11 -10 13 -10 7 0 -4 6 -2 12 3 12
6 0 11 -6 11 -12 0 -9 4 -8 10 2 8 12 10 12 10 1 0 -11 3 -11 17 0 11 10 14
10 9 2 -4 -8 -1 -13 8 -13 9 0 16 6 16 13 0 8 4 7 10 -3 5 -8 10 -10 10 -5 0
6 4 4 8 -3 5 -7 18 -14 31 -17 12 -2 19 0 16 6 -4 5 -11 6 -17 3 -7 -4 -8 -2
-4 4 7 11 36 6 36 -7 0 -4 9 -7 20 -8 13 -1 18 2 13 10 -4 8 -1 8 9 -1 11 -9
18 -10 23 -2 4 7 12 7 26 -1 11 -6 27 -8 34 -5 7 2 19 -1 25 -9 11 -13 53 -17
44 -4 -2 3 8 7 21 7 14 0 28 -4 31 -9 3 -5 15 -4 26 2 18 10 20 9 14 -7 -4
-10 -4 -15 0 -11 4 4 13 2 21 -4 10 -9 13 -8 13 1 0 8 3 10 7 7 3 -4 12 -2 20
4 10 9 13 8 13 -5 0 -21 16 -20 29 2 7 11 10 13 11 3 0 -10 3 -11 14 -2 11 9
16 9 22 0 5 -8 3 -10 -7 -4 -8 5 -10 4 -6 0 13 -15 39 -15 34 0 -4 9 1 11 14
8 10 -3 16 -10 12 -16 -3 -5 -1 -7 5 -3 5 3 12 3 15 -1 2 -5 2 -2 1 5 -4 16
13 16 19 0 3 -10 8 -9 22 2 17 14 18 13 12 -5 -7 -20 -7 -20 8 -1 10 13 15 15
15 6 0 -7 3 -10 7 -7 3 4 13 1 21 -6 13 -9 14 -9 8 1 -4 7 -2 12 4 12 6 0 8 5
4 12 -5 7 -3 8 5 4 7 -5 10 -14 8 -20 -6 -14 28 -15 40 -1 5 4 2 5 -6 0 -10
-6 -12 -4 -7 4 6 9 13 8 29 -6 11 -10 17 -12 13 -5 -9 15 6 16 22 0 9 -9 12
-8 12 5 0 9 5 17 11 17 5 0 8 -4 5 -9 -3 -5 1 -12 10 -15 10 -4 13 -2 8 7 -5
8 -2 7 9 -2 15 -12 17 -11 17 5 0 15 2 16 9 5 9 -13 71 -24 71 -12 0 4 9 7 20
7 11 0 20 -5 20 -11 0 -5 4 -4 9 3 6 11 11 10 25 -3 15 -15 16 -15 17 7 0 22
1 22 9 3 5 -11 9 -14 9 -6 1 11 4 11 16 1 8 -7 15 -8 15 -3 0 11 29 11 48 -1
7 -4 12 -2 12 6 1 8 7 5 17 -7 13 -16 15 -17 10 -2 -7 20 -3 21 24 7 15 -9 19
-7 19 7 0 15 2 15 16 -3 11 -13 14 -14 11 -3 -3 9 1 16 9 16 7 0 11 -4 8 -9
-3 -4 4 -8 15 -8 11 0 22 4 25 9 8 12 46 2 46 -11 0 -6 9 0 20 13 11 13 19 20
18 14 -2 -5 1 -11 6 -12 5 -1 13 -7 17 -15 6 -10 9 -8 9 7 0 12 3 16 8 9 9
-15 50 -12 82 6 23 12 24 12 12 -3 -12 -14 -10 -15 13 -13 15 2 31 9 35 16 6
10 9 8 13 -6 3 -14 5 -15 6 -3 1 12 8 15 27 11 21 -4 25 -2 19 9 -5 8 1 6 12
-4 16 -14 23 -15 29 -6 5 8 3 10 -6 4 -8 -5 -11 -4 -6 3 4 6 13 9 21 6 8 -4
13 -9 10 -13 -2 -4 2 -8 9 -8 8 0 12 5 10 12 -3 6 6 11 18 12 18 2 19 0 8 -7
-11 -7 -10 -9 7 -7 12 0 19 5 17 9 -3 4 2 8 11 8 10 0 13 -5 9 -12 -6 -10 -4
-10 7 -2 17 14 92 26 84 14 -7 -11 22 -7 32 5 4 4 2 5 -6 0 -9 -5 -12 -4 -7 3
9 15 38 3 29 -12 -3 -6 3 -3 14 7 11 9 22 14 26 11 4 -4 18 1 31 10 16 10 27
12 31 6 4 -6 1 -9 -6 -8 -6 2 -14 -3 -16 -10 -4 -11 -1 -12 16 -3 12 7 25 9
30 6 5 -3 16 2 24 10 12 11 16 12 20 2 3 -9 8 -9 20 2 14 11 17 11 17 0 0 -8
6 -6 16 7 8 10 13 14 10 7 -4 -6 -2 -14 4 -18 5 -3 10 1 10 9 0 22 17 20 23
-1 4 -15 5 -16 6 -2 0 9 10 19 22 22 15 4 19 2 15 -9 -5 -13 -2 -13 16 1 25
17 42 20 33 5 -11 -18 4 -11 25 13 12 12 20 16 18 8 -2 -7 5 -15 14 -16 12 -2
15 2 10 13 -5 15 -4 16 13 2 11 -9 16 -10 11 -2 -11 18 5 14 20 -5 13 -17 14
-17 8 0 -7 19 12 24 19 5 3 -8 6 -5 6 5 1 10 6 15 11 12 6 -4 18 -1 27 7 14
11 16 11 11 -3 -5 -13 -2 -16 14 -11 15 4 17 7 6 13 -9 6 -5 9 14 9 14 0 29
-6 31 -12 3 -7 6 -2 6 12 1 19 3 22 10 11 7 -12 13 -12 24 -3 7 7 17 9 21 5
13 -13 37 -11 43 3 4 11 9 12 18 4 10 -8 15 -8 21 1 4 8 3 9 -4 5 -7 -4 -12
-2 -12 4 0 8 7 9 18 5 38 -15 48 -17 34 -7 -11 7 -9 10 7 15 12 3 19 1 16 -3
-7 -11 22 -7 32 5 4 4 2 5 -6 0 -10 -6 -12 -4 -7 4 5 7 14 10 22 7 7 -3 16 -1
20 5 4 6 11 6 20 -2 10 -8 14 -8 14 -1 0 7 7 9 17 5 10 -4 14 -2 9 5 -3 6 -2
13 3 16 5 4 13 1 17 -5 5 -8 3 -9 -6 -4 -9 5 -11 4 -6 -4 6 -9 11 -9 22 0 10
8 18 9 27 0 10 -8 14 -7 14 4 0 8 -5 11 -11 8 -6 -3 -5 0 3 8 10 11 15 11 18
2 4 -10 8 -10 18 1 8 7 25 11 39 9 16 -3 26 -1 26 6 0 7 5 9 10 6 6 -3 10 0
10 7 0 9 3 9 10 -2 5 -8 10 -10 10 -3 0 6 11 10 25 8 20 -2 23 1 14 11 -9 11
-5 11 19 4 24 -6 30 -5 25 5 -3 10 2 13 21 9 17 -3 24 0 22 8 -1 7 -1 10 1 6
9 -17 32 -8 26 10 -5 14 -3 13 10 -3 9 -11 17 -15 17 -7 0 6 7 12 16 12 9 0
12 -5 8 -12 -4 -8 -3 -10 2 -5 5 5 9 14 9 20 0 5 6 12 14 15 9 3 11 0 5 -9 -7
-12 -5 -12 9 -1 9 8 21 11 26 8 5 -4 12 -2 16 4 4 6 11 8 16 4 5 -3 8 0 7 7
-2 6 3 14 11 17 8 2 11 0 7 -6 -4 -6 2 -8 15 -5 16 5 18 8 7 15 -9 7 -6 8 10
5 18 -4 22 -2 18 10 -5 13 -4 14 8 4 11 -9 15 -9 18 0 2 7 12 13 21 15 9 1 15
-2 11 -7 -3 -5 -10 -6 -16 -3 -7 5 -8 2 -4 -5 6 -9 12 -9 25 3 10 9 22 13 26
9 5 -5 4 -1 -2 7 -10 13 -8 16 8 17 12 1 17 -3 13 -10 -3 -7 2 -3 10 7 9 11
16 16 16 10 0 -5 4 -3 9 4 4 7 17 15 27 17 10 2 20 4 22 5 1 2 5 3 10 4 4 1
13 5 21 10 10 7 12 5 7 -5 -4 -8 -2 -7 6 2 7 9 21 15 31 13 12 -1 17 2 14 11
-4 9 1 11 14 8 10 -3 19 0 19 6 0 6 5 11 11 11 5 0 7 -5 3 -12 -5 -7 -3 -8 5
-4 7 5 10 14 8 20 -3 7 1 13 9 13 7 0 11 -4 9 -8 -3 -4 2 -6 11 -5 18 3 35 26
28 38 -3 4 2 5 11 2 8 -4 22 -1 29 5 11 9 15 9 19 -1 3 -8 6 -6 6 6 1 12 6 16
16 12 8 -3 14 0 12 7 -1 7 4 11 11 10 6 -2 12 2 12 7 0 6 6 10 14 10 8 0 17 6
19 13 4 9 6 9 6 -2 1 -8 9 -5 22 10 11 13 18 17 14 9 -4 -8 3 -2 15 13 22 27
23 27 44 10 12 -10 16 -12 9 -3 -11 14 1 36 24 43 5 1 7 5 6 9 -2 4 5 4 14 1
10 -4 14 -2 10 4 -5 7 2 10 17 9 14 -2 24 2 23 8 -1 6 4 10 12 8 12 -3 12 -1
0 14 -13 16 -12 16 8 6 19 -11 21 -9 16 11 -4 18 -3 19 6 7 7 -10 11 -11 11
-2 0 6 7 12 15 12 9 0 20 11 27 25 6 13 14 22 18 20 4 -2 21 9 38 24 17 16 33
26 36 23 3 -3 6 3 6 12 0 13 5 16 16 12 12 -5 15 -2 11 13 -3 14 0 17 13 14
10 -3 21 1 25 8 5 8 4 10 -3 5 -7 -4 -12 -2 -12 3 0 6 7 11 15 11 8 0 15 7 15
15 0 9 6 12 15 9 11 -5 13 -2 9 10 -5 12 -2 15 10 10 12 -4 15 -2 10 9 -3 10
2 18 15 22 12 4 18 11 15 17 -5 7 -2 9 8 6 8 -4 15 0 15 8 0 7 -5 10 -10 7 -6
-4 -7 -1 -3 6 5 7 15 10 23 7 8 -3 11 -1 8 4 -3 6 -1 10 5 10 6 0 8 5 5 10 -4
6 -11 7 -17 4 -7 -4 -8 -2 -4 4 4 6 14 8 24 5 9 -3 14 -3 10 2 -4 4 0 14 10
21 9 7 17 21 17 31 0 10 6 17 13 15 8 -1 11 2 8 7 -9 14 5 42 16 35 7 -5 9 5
6 24 -3 24 -2 29 8 21 8 -7 14 -6 20 2 4 8 3 9 -4 5 -7 -4 -12 -2 -12 3 0 6 5
11 10 11 6 0 10 8 10 18 0 10 6 24 13 31 10 12 8 13 -8 7 -17 -5 -16 -3 5 15
18 15 20 19 7 15 -11 -3 -16 -2 -12 4 3 6 14 10 23 10 14 0 15 2 3 9 -12 8
-12 12 -2 25 11 13 11 16 0 16 -11 0 -11 2 0 9 12 8 12 12 2 24 -10 13 -9 15
11 10 23 -5 23 -5 3 11 -11 10 -14 15 -7 11 6 -3 12 -3 13 2 0 4 2 16 4 26 2
9 -1 15 -6 11 -9 -5 -14 11 -9 31 1 6 3 15 4 20 1 6 5 16 10 24 7 10 3 12 -15
6 -22 -7 -22 -7 -6 10 17 16 17 19 1 42 -9 14 -12 23 -6 19 5 -3 12 1 15 9 4
9 1 12 -7 9 -9 -3 -13 3 -12 18 1 13 -3 26 -9 30 -5 4 -11 20 -11 35 -3 43 -3
45 -16 37 -10 -6 -10 -4 0 8 10 13 10 18 1 24 -8 4 -9 3 -5 -4 15 -24 -1 -11
-23 19 -13 18 -19 29 -12 25 16 -10 8 31 -9 47 -12 10 -12 9 -2 -5 10 -12 10
-18 1 -24 -7 -4 -9 -3 -5 4 3 6 2 13 -3 17 -6 3 -8 12 -4 20 3 9 -1 15 -11 15
-9 0 -15 3 -15 8 3 20 -3 30 -23 35 -19 5 -20 8 -7 23 9 12 10 15 2 10 -8 -4
-13 -2 -13 7 0 15 -45 58 -53 51 -2 -3 -7 2 -11 11 -4 11 -2 14 7 9 8 -5 7 -2
-2 9 -11 14 -17 15 -28 5 -12 -9 -13 -7 -9 16 4 25 3 26 -11 14 -12 -9 -15
-10 -9 0 4 7 1 15 -8 18 -9 3 -13 10 -10 15 3 5 -2 9 -10 9 -9 0 -16 5 -16 11
0 5 -4 7 -10 4 -5 -3 -10 -2 -10 4 0 5 6 12 13 14 7 4 6 6 -5 6 -9 1 -19 -5
-21 -11 -5 -13 -11 18 -7 37 1 5 -2 7 -6 3 -4 -4 -13 0 -21 10 -8 9 -12 11 -8
5 12 -25 -5 -12 -20 15 -9 15 -14 19 -11 9 3 -11 2 -15 -4 -12 -6 3 -10 14
-11 23 0 14 -2 13 -9 -3 -8 -19 -9 -19 -9 3 -1 13 -7 22 -17 22 -10 0 -14 6
-11 14 4 10 0 12 -14 9 -15 -4 -19 0 -20 18 0 22 -1 23 -9 4 -8 -19 -9 -19 -9
-1 -1 15 -4 16 -16 6 -13 -11 -14 -10 -8 5 5 15 3 17 -11 12 -9 -4 -15 -3 -13
1 3 4 -5 16 -16 27 -18 18 -19 18 -14 2 10 -28 -13 -9 -24 19 -7 21 -12 23
-28 14 -14 -7 -22 -7 -27 2 -5 7 -3 8 7 3 12 -7 12 -6 1 7 -7 9 -22 15 -32 13
-12 -2 -27 6 -38 20 -15 19 -22 21 -32 12 -10 -9 -11 -9 -6 1 6 11 -5 16 -26
13 -4 0 -5 6 -2 14 5 11 2 13 -12 8 -13 -5 -15 -3 -9 8 4 8 4 11 0 6 -5 -4
-18 1 -29 10 -20 17 -20 17 -7 0 12 -15 12 -17 -3 -11 -9 3 -16 10 -16 15 0 5
-6 8 -12 7 -7 -2 -12 3 -10 10 1 9 -5 11 -23 6 -20 -5 -24 -3 -20 9 5 11 0 13
-19 10 -18 -4 -28 0 -32 11 -4 11 -13 15 -25 11 -15 -5 -18 -3 -12 12 3 10 3
15 -2 11 -4 -4 -17 -3 -28 3 -15 9 -18 8 -11 -3 5 -8 -2 -6 -19 5 -15 10 -32
15 -37 12 -6 -3 -10 -1 -10 5 0 6 -5 8 -12 4 -7 -5 -9 -2 -6 8 4 8 0 15 -8 15
-7 0 -11 -5 -8 -11 3 -6 -5 0 -17 14 -15 17 -20 19 -16 8 4 -10 2 -18 -3 -18
-6 0 -10 5 -10 11 0 5 -5 7 -12 3 -8 -5 -9 -2 -4 11 5 15 4 16 -9 5 -13 -11
-19 -7 -17 11 1 4 -8 5 -18 2 -13 -3 -20 0 -20 8 0 11 -2 11 -10 -1 -8 -12
-10 -12 -10 -1 0 8 -3 11 -6 8 -4 -3 -15 -2 -25 3 -9 6 -19 7 -22 2 -2 -4 -2
-1 0 7 2 8 -2 11 -12 7 -8 -3 -15 0 -15 7 0 7 -9 13 -19 13 -11 0 -17 -4 -15
-8 3 -4 -2 -5 -10 -2 -9 3 -13 11 -9 18 4 6 0 6 -9 -2 -13 -10 -18 -10 -24 -1
-5 8 -3 10 7 4 12 -7 12 -5 1 6 -11 12 -14 12 -21 0 -7 -10 -10 -10 -13 -1 -2
7 -21 14 -41 15 -21 2 -46 10 -56 19 -19 17 -46 22 -36 6 3 -6 -1 -7 -9 -4 -9
3 -13 11 -9 17 4 6 0 8 -10 4 -10 -3 -17 -3 -17 2 0 4 -18 7 -39 7 -27 -1 -37
2 -30 10 5 7 3 11 -6 11 -8 0 -15 -5 -15 -11 0 -5 -7 -1 -16 10 -8 10 -13 13
-9 7 3 -7 1 -13 -4 -13 -6 0 -11 7 -11 16 0 8 -5 12 -10 9 -6 -4 -7 -11 -4
-17 4 -6 -1 -6 -14 1 -12 6 -24 16 -27 21 -4 7 -13 7 -25 0 -13 -7 -21 -7 -26
2 -4 7 -3 8 4 4 18 -11 14 0 -5 15 -10 8 -14 9 -10 2 4 -6 3 -14 -3 -18 -5 -3
-10 -1 -10 4 0 6 -5 11 -11 11 -5 0 -8 -4 -4 -9 3 -5 0 -13 -6 -17 -8 -4 -9
-3 -5 4 3 6 -2 16 -13 21 -27 15 -31 14 -25 -6 3 -10 0 -8 -8 5 -11 18 -16 20
-27 10 -11 -10 -12 -10 -7 0 4 6 3 12 -3 12 -5 0 -12 -6 -15 -12 -4 -7 -4 -2
-2 12 5 23 4 24 -8 7 -10 -12 -15 -14 -18 -6 -2 7 -14 13 -26 14 -13 1 -19 -3
-15 -9 4 -6 -1 -5 -10 3 -14 11 -17 11 -17 0 0 -11 -2 -11 -9 1 -6 8 -7 18 -4
23 3 5 -10 1 -28 -9 -33 -17 -34 -17 -19 2 8 10 10 16 6 12 -5 -4 -16 -2 -24
5 -11 8 -14 8 -9 0 4 -6 3 -14 -2 -18 -5 -3 -14 3 -20 12 -6 11 -11 13 -11 5
0 -7 -5 -10 -10 -7 -6 4 -8 12 -4 18 3 7 -1 4 -9 -6 -15 -18 -47 -14 -47 5 0
6 -8 4 -17 -3 -14 -12 -16 -12 -11 1 4 11 -2 16 -23 16 -26 2 -28 0 -17 -15
12 -14 11 -14 -4 -3 -9 8 -22 11 -27 7 -7 -3 -8 0 -5 10 5 11 2 14 -10 9 -9
-3 -16 -11 -16 -18 0 -6 -4 -5 -9 4 -6 8 -7 18 -5 22 3 4 -2 5 -10 2 -9 -3
-16 -11 -16 -18 -1 -6 -7 0 -15 14 -10 17 -14 20 -15 9 0 -11 -8 -15 -26 -13
-14 1 -29 6 -32 10 -4 4 2 4 13 0 16 -6 17 -5 8 5 -10 10 -15 9 -28 -1 -14
-12 -19 -7 -16 15 1 6 -5 2 -12 -7 -14 -18 -33 -26 -23 -10 3 5 -12 10 -32 11
-20 1 -46 3 -57 5 -11 2 -23 -2 -27 -8 -5 -7 -8 -4 -8 8 0 12 -5 16 -16 12 -8
-3 -25 -1 -37 6 -19 10 -20 9 -10 -4 11 -12 9 -14 -7 -13 -11 1 -23 5 -27 10
-5 4 -2 5 6 0 9 -5 12 -4 7 3 -4 8 -15 8 -31 2 -24 -9 -29 -6 -26 15 1 6 -5 2
-13 -8 -11 -15 -19 -16 -34 -8 -11 6 -22 7 -26 4 -3 -3 -6 0 -6 8 0 11 -2 11
-10 -1 -9 -13 -10 -13 -10 0 0 13 -1 13 -10 0 -9 -13 -10 -13 -10 0 0 13 -1
13 -10 0 -6 -10 -10 -11 -10 -2 0 6 -7 12 -16 12 -9 0 -12 -5 -8 -12 5 -9 2
-9 -9 1 -12 10 -17 10 -17 2 0 -8 -6 -7 -16 3 -17 18 -28 21 -19 6 3 -5 -1
-10 -9 -10 -10 0 -13 6 -10 18 4 11 3 13 -3 5 -14 -20 -65 -24 -84 -7 -11 10
-19 12 -24 5 -3 -6 -11 -11 -16 -11 -6 0 -7 5 -3 11 4 8 0 8 -15 0 -11 -7 -21
-8 -21 -3 0 4 -9 8 -19 8 -11 0 -17 -4 -15 -8 3 -4 1 -8 -5 -8 -5 0 -12 6 -14
13 -4 9 -8 8 -16 -3 -7 -10 -13 -11 -18 -4 -10 13 -53 13 -53 -1 0 -5 -5 -3
-10 5 -8 12 -13 13 -29 3 -23 -14 -54 -7 -44 11 4 6 -1 5 -10 -3 -9 -7 -17
-10 -17 -5 0 5 -5 2 -10 -6 -7 -12 -10 -12 -10 -1 0 7 -6 11 -14 8 -7 -3 -19
0 -26 6 -10 9 -11 9 -6 -1 6 -9 1 -12 -16 -10 -12 2 -29 7 -35 11 -9 5 -11 3
-7 -6z m-2766 -536 c0 -5 -7 -12 -16 -15 -14 -5 -15 -4 -4 9 14 17 20 19 20 6z
m6335 -541 c3 -6 -1 -7 -9 -4 -18 7 -21 14 -7 14 6 0 13 -4 16 -10z m-6308
-1582 c-3 -8 -6 -5 -6 6 -1 11 2 17 5 13 3 -3 4 -12 1 -19z m5108 -157 c3 -5
2 -12 -3 -15 -5 -3 -9 1 -9 9 0 17 3 19 12 6z m-4654 -18 c13 -17 13 -17 -6
-3 -11 8 -22 16 -24 17 -2 2 0 3 6 3 6 0 17 -8 24 -17z m569 -147 c0 -3 -4 -8
-10 -11 -5 -3 -10 -1 -10 4 0 6 5 11 10 11 6 0 10 -2 10 -4z m3364 -34 c3 -5
-1 -9 -9 -9 -8 0 -12 4 -9 9 3 4 7 8 9 8 2 0 6 -4 9 -8z m-2384 -116 c0 -3 -4
-8 -10 -11 -5 -3 -10 -1 -10 4 0 6 5 11 10 11 6 0 10 -2 10 -4z m154 -14 c2
-4 -5 -9 -17 -9 -17 -2 -19 0 -7 7 18 12 18 12 24 2z m1063 -5 c0 -8 -6 -14
-14 -14 -9 0 -10 4 -2 14 6 7 12 13 14 13 1 0 2 -6 2 -13z m-543 -15 c3 -5 -1
-9 -9 -9 -8 0 -12 4 -9 9 3 4 7 8 9 8 2 0 6 -4 9 -8z"/>
<path d="M6610 5717 c0 -2 6 -10 14 -16 11 -9 16 -9 22 1 4 7 4 10 -1 6 -4 -4
-14 -3 -22 3 -7 6 -13 9 -13 6z"/>
<path d="M1261 5403 c7 -12 15 -20 18 -17 3 2 -3 12 -13 22 -17 16 -18 16 -5
-5z"/>
<path d="M7766 5398 c-16 -18 -16 -20 -2 -15 10 4 19 1 22 -6 2 -7 13 -13 24
-14 16 -1 18 1 8 17 -6 10 -18 16 -25 13 -9 -4 -11 0 -7 11 8 22 2 20 -20 -6z"/>
<path d="M1210 5388 c0 -5 -4 -7 -9 -3 -5 3 -12 1 -16 -5 -4 -6 -10 -8 -14 -6
-4 3 -18 -4 -30 -15 -17 -16 -25 -18 -35 -9 -11 8 -14 7 -12 -7 1 -13 -6 -18
-26 -18 -21 1 -25 -2 -16 -12 8 -10 7 -12 -4 -8 -9 4 -18 -1 -22 -11 -5 -12
-9 -14 -20 -5 -16 14 -27 4 -18 -17 5 -15 3 -15 -10 -4 -17 14 -35 1 -24 -17
4 -5 -4 -7 -16 -3 -17 4 -20 2 -15 -12 4 -10 3 -15 -4 -11 -5 4 -17 1 -25 -6
-12 -10 -13 -9 -8 7 5 19 5 19 -10 0 -8 -10 -13 -23 -9 -29 3 -6 1 -7 -5 -3
-6 3 -13 2 -17 -4 -4 -6 -11 -8 -16 -5 -5 4 -9 2 -9 -4 0 -5 -10 -8 -23 -7
-14 2 -24 -2 -24 -10 0 -7 5 -10 10 -7 6 4 7 1 3 -6 -5 -7 -10 -10 -13 -7 -9
9 -64 -24 -58 -34 4 -6 -1 -10 -10 -10 -9 0 -30 -14 -47 -31 -18 -18 -37 -28
-46 -24 -12 5 -13 3 -2 -10 11 -13 11 -16 -1 -13 -8 2 -13 -4 -13 -14 1 -14
-2 -16 -18 -7 -11 6 -22 8 -26 5 -3 -3 0 -6 7 -6 7 0 9 -5 6 -10 -4 -6 -11 -8
-16 -5 -5 3 -6 -2 -2 -11 4 -12 3 -15 -5 -10 -7 4 -12 1 -12 -9 0 -9 -4 -13
-10 -10 -5 3 -10 1 -10 -5 0 -6 -5 -8 -12 -4 -10 6 -10 4 0 -8 10 -13 10 -18
1 -24 -8 -4 -9 -3 -5 4 4 7 2 12 -3 12 -6 0 -11 -5 -11 -11 0 -5 -5 -7 -11 -3
-7 4 -6 -2 2 -17 11 -22 11 -23 -5 -10 -15 12 -16 12 -9 -5 6 -17 5 -18 -12
-4 -17 14 -18 14 -7 -6 10 -18 9 -21 -6 -20 -10 0 -16 -6 -16 -16 1 -10 -4
-18 -11 -18 -7 0 -18 -7 -25 -15 -9 -10 -9 -15 -1 -15 6 0 11 5 11 10 0 6 6
10 12 10 7 0 0 -12 -15 -26 -16 -14 -24 -30 -20 -37 5 -8 2 -8 -9 1 -13 10
-15 9 -10 -14 4 -24 2 -26 -19 -19 -23 7 -24 7 -4 -9 12 -9 15 -15 7 -16 -7 0
-10 -4 -7 -10 3 -5 1 -10 -6 -10 -7 0 -9 -8 -6 -21 4 -15 2 -18 -7 -10 -9 8
-13 7 -13 -4 0 -8 5 -15 11 -15 6 0 5 -4 -2 -9 -7 -4 -14 -19 -15 -32 0 -13
-8 -30 -17 -37 -8 -8 -10 -11 -4 -8 7 3 15 -1 18 -10 3 -8 2 -12 -4 -9 -6 3
-10 5 -10 3 0 -2 -4 -18 -9 -36 -6 -18 -6 -30 -2 -28 4 3 8 -1 8 -9 0 -8 -4
-12 -9 -9 -10 6 -11 -10 -1 -20 4 -3 7 -24 8 -46 1 -35 0 -37 -13 -22 -9 11
-9 8 2 -10 9 -16 12 -29 6 -33 -13 -8 -1 -35 17 -35 8 0 11 -5 8 -10 -4 -6
-10 -8 -14 -6 -4 3 -8 -1 -8 -9 0 -8 4 -12 8 -10 4 3 10 -2 13 -11 9 -22 8
-26 -5 -19 -6 4 -5 -2 3 -14 7 -12 16 -21 21 -21 4 0 6 -4 2 -9 -3 -5 2 -17
11 -25 8 -9 12 -16 8 -16 -3 0 -1 -7 6 -15 7 -8 10 -21 7 -30 -4 -8 -2 -17 3
-20 6 -4 10 -1 10 6 0 7 3 9 6 6 4 -4 1 -15 -7 -24 -7 -10 -10 -15 -5 -11 5 4
17 3 28 -3 16 -9 17 -13 6 -27 -10 -12 -10 -14 0 -8 7 4 12 2 12 -4 0 -6 5 -8
13 -4 8 5 7 2 -2 -9 -12 -15 -12 -17 3 -11 11 4 15 2 11 -8 -3 -8 1 -21 9 -28
9 -7 13 -17 9 -23 -4 -6 -1 -7 6 -3 9 6 8 12 -4 26 -12 14 -13 20 -4 26 7 4
10 3 6 -3 -4 -6 0 -16 8 -23 7 -6 12 -17 9 -24 -3 -7 3 -19 13 -27 17 -13 17
-13 3 6 -14 18 -13 19 1 8 9 -7 19 -10 23 -6 4 4 4 0 1 -10 -7 -16 15 -47 33
-47 5 0 16 -8 23 -17 13 -16 12 -17 -4 -4 -15 12 -17 12 -11 -3 3 -9 15 -16
25 -16 11 0 22 -7 25 -15 4 -8 11 -12 18 -8 6 4 4 -2 -4 -12 -9 -11 -10 -16
-3 -11 8 4 13 2 13 -5 0 -8 4 -8 16 1 12 11 15 11 12 -1 -2 -8 2 -13 9 -12 8
2 10 -4 6 -14 -4 -11 -3 -14 5 -9 7 4 12 2 12 -5 0 -9 3 -9 14 0 12 10 13 8 9
-8 -4 -17 -1 -21 20 -21 17 0 28 -7 32 -20 3 -11 11 -20 16 -20 6 0 7 5 3 12
-4 7 -3 8 5 4 9 -6 9 -11 1 -21 -8 -9 -4 -12 15 -10 15 2 25 -2 25 -10 0 -22
25 -36 40 -22 10 10 11 9 5 -2 -6 -11 -4 -13 10 -7 16 6 16 4 4 -10 -13 -16
-12 -16 10 -5 15 8 21 9 17 2 -11 -18 4 -34 19 -21 11 9 17 7 27 -9 7 -12 21
-21 31 -21 11 0 15 -4 11 -12 -5 -8 -2 -9 9 -5 12 4 17 1 18 -11 0 -14 2 -14
9 3 7 17 9 17 9 3 1 -10 6 -18 12 -18 5 0 7 5 3 12 -4 7 -3 8 4 4 6 -4 9 -12
6 -20 -3 -7 2 -13 10 -13 8 0 13 3 11 7 -2 4 2 7 10 7 8 0 12 -3 10 -7 -2 -3
0 -12 6 -20 7 -12 9 -11 9 5 0 16 2 17 9 6 5 -8 7 -21 4 -30 -4 -14 -3 -14 6
-1 9 12 13 13 20 2 4 -8 11 -13 15 -13 23 3 36 0 31 -8 -3 -5 0 -13 6 -17 8
-4 9 -3 5 4 -11 18 5 14 28 -5 16 -14 18 -14 8 -2 -6 9 -8 20 -4 24 4 5 1 5
-6 1 -7 -4 -15 -1 -18 9 -4 9 -12 14 -20 11 -8 -3 -11 2 -9 14 3 14 -2 17 -21
15 -13 -1 -27 2 -31 8 -4 6 -1 7 8 2 12 -8 12 -6 0 8 -7 9 -17 14 -22 11 -5
-3 -12 2 -15 10 -3 9 -14 16 -24 16 -10 0 -22 10 -25 21 -6 17 -9 19 -16 8 -7
-12 -9 -11 -10 1 -1 8 -1 19 0 24 1 5 -5 3 -14 -4 -13 -11 -15 -10 -10 3 6 15
-27 34 -50 29 -5 -1 -2 4 8 12 16 12 16 14 2 20 -9 3 -13 2 -10 -4 3 -6 2 -10
-4 -10 -5 0 -13 9 -16 21 -5 15 -10 17 -20 9 -11 -9 -12 -7 -8 9 4 15 1 21
-12 21 -11 0 -15 5 -12 14 4 10 -1 13 -17 12 -18 -2 -22 1 -18 16 3 12 -1 18
-13 18 -11 0 -15 5 -12 14 3 8 -2 20 -11 28 -11 9 -14 10 -8 1 10 -17 -2 -16
-20 1 -19 19 -18 27 4 20 9 -3 7 1 -6 8 -12 8 -19 18 -15 23 4 5 0 4 -9 -3
-14 -12 -16 -10 -11 9 4 15 3 20 -5 15 -8 -5 -12 1 -12 14 0 12 -4 19 -9 16
-5 -3 -11 8 -15 24 -3 18 -12 30 -21 30 -9 0 -13 5 -10 10 3 6 1 10 -5 10 -6
0 -8 5 -5 10 3 6 1 10 -4 10 -6 0 -11 7 -11 16 0 9 -5 12 -12 8 -8 -5 -7 0 2
11 9 11 10 16 3 11 -12 -6 -18 5 -14 27 0 4 -4 7 -10 7 -5 0 -8 4 -4 9 3 6 -3
14 -12 20 -17 10 -17 10 0 11 9 0 17 4 17 10 0 5 -6 7 -14 4 -8 -3 -16 3 -19
15 -3 12 -1 19 3 16 5 -3 12 0 16 6 4 8 3 9 -4 5 -6 -3 -16 3 -22 15 -8 15 -9
19 -1 15 6 -4 11 -2 11 3 0 6 -7 11 -15 11 -8 0 -15 5 -15 11 0 5 4 8 8 5 4
-2 8 4 8 14 0 12 -4 16 -11 10 -7 -6 -11 -2 -11 10 0 10 5 16 11 12 5 -3 4 2
-4 11 -15 18 -21 88 -7 80 5 -3 5 1 0 10 -12 21 -5 129 8 121 6 -4 2 6 -7 20
-10 15 -14 26 -9 24 5 -2 11 2 12 7 2 6 8 16 14 23 8 9 6 11 -8 6 -17 -5 -17
-4 -3 8 9 7 14 19 12 26 -3 6 1 12 9 12 10 0 10 2 0 8 -15 10 -5 42 13 42 8 0
16 4 19 9 4 5 -4 7 -16 4 -21 -4 -21 -3 -5 7 15 10 16 14 5 28 -7 9 -8 14 -4
10 5 -5 16 1 23 12 12 18 13 23 1 37 -12 15 -11 15 10 4 12 -6 22 -7 22 -2 0
5 -6 12 -12 14 -10 4 -10 6 0 6 7 1 10 6 7 11 -3 6 -1 10 5 10 7 0 9 7 6 16
-3 8 -2 13 2 11 4 -3 12 1 19 8 10 11 10 15 0 19 -7 4 -3 5 8 3 15 -3 21 1 21
14 0 15 -3 16 -16 6 -13 -11 -13 -10 -1 6 7 9 21 17 30 17 14 0 14 2 1 10 -13
8 -13 10 2 10 12 0 15 5 11 17 -5 12 -3 14 7 8 10 -6 12 -4 7 8 -4 12 -2 14
10 10 12 -5 14 -3 8 7 -6 10 -4 12 7 8 11 -5 15 0 13 15 -2 31 5 40 21 26 12
-10 13 -9 9 4 -4 8 -1 18 6 23 8 5 10 3 4 -6 -5 -8 -4 -11 3 -6 6 4 9 13 5 21
-3 11 2 15 17 15 15 0 20 5 17 14 -6 15 27 33 47 27 5 -1 5 4 -1 11 -12 14 0
30 27 36 18 4 31 23 24 34 -3 4 3 5 12 1 14 -5 16 -3 11 12 -6 15 -5 16 7 6
11 -9 16 -9 22 0 5 8 3 9 -7 4 -12 -7 -12 -6 -1 7 8 9 19 15 27 12 7 -3 16 0
21 7 4 7 3 10 -4 5 -6 -3 -13 -2 -17 4 -4 6 5 10 20 10 17 0 24 4 19 12 -5 8
-2 9 9 5 11 -4 17 -1 17 8 0 7 5 17 12 21 7 4 8 3 4 -4 -4 -7 -2 -12 3 -12 6
0 11 7 11 15 0 15 40 42 40 28 0 -4 7 0 15 11 7 10 18 15 24 11 6 -3 11 1 11
10 0 9 -4 14 -9 10 -5 -3 -12 -2 -15 3 -3 5 0 9 7 9 7 0 19 3 27 5 8 3 12 3 8
1 -15 -8 -8 -22 7 -16 9 3 14 11 12 17 -4 13 -47 17 -47 4z m-40 -22 c0 -2 -8
-10 -17 -17 -16 -13 -17 -12 -4 4 13 16 21 21 21 13z m11 -19 c-10 -9 -11 -8
-5 6 3 10 9 15 12 12 3 -3 0 -11 -7 -18z m-483 -1462 c-3 -3 -9 2 -12 12 -6
14 -5 15 5 6 7 -7 10 -15 7 -18z m139 -300 c0 -8 -4 -12 -9 -9 -5 3 -6 10 -3
15 9 13 12 11 12 -6z"/>
<path d="M7825 5391 c-3 -5 -1 -12 4 -16 6 -3 8 -12 4 -20 -3 -8 0 -15 5 -15
19 0 23 18 8 33 -8 8 -12 17 -9 21 4 3 4 6 0 6 -3 0 -8 -4 -12 -9z"/>
<path d="M7866 5363 c2 -7 -1 -15 -6 -18 -15 -9 -12 -28 4 -22 7 3 20 -2 29
-11 41 -42 70 -67 57 -47 -8 11 0 7 17 -10 17 -16 29 -36 26 -45 -2 -8 2 -4
10 9 12 20 15 21 20 7 5 -11 3 -15 -5 -10 -7 4 -8 3 -4 -4 4 -7 14 -12 22 -12
13 0 19 -12 15 -33 -1 -5 3 -6 8 -3 12 8 42 -4 36 -14 -2 -4 4 -18 15 -30 11
-13 20 -18 20 -12 0 6 -4 14 -10 17 -5 3 -10 12 -10 18 0 7 9 -1 19 -17 11
-17 17 -35 14 -40 -4 -6 2 -4 12 4 11 9 16 10 11 3 -4 -8 -2 -13 4 -13 7 0 9
-7 6 -16 -3 -8 -2 -13 3 -10 5 3 21 -6 37 -21 17 -16 22 -24 12 -20 -10 3 -18
2 -18 -3 0 -6 7 -10 16 -10 9 0 12 -5 8 -12 -6 -10 -4 -10 8 0 13 10 18 10 24
1 4 -8 3 -9 -4 -5 -7 4 -12 3 -12 -2 0 -5 10 -14 23 -21 12 -6 14 -9 5 -7 -10
3 -20 1 -23 -5 -4 -5 -3 -9 2 -8 4 1 17 1 28 0 17 -1 18 -3 5 -11 -13 -8 -13
-10 1 -10 9 0 22 -7 29 -15 11 -13 10 -14 -6 -9 -15 6 -13 1 8 -20 15 -15 26
-33 24 -39 -1 -7 -1 -9 1 -4 3 4 8 7 12 7 8 0 11 -17 12 -59 1 -13 4 -19 8
-13 4 7 11 4 19 -8 8 -13 9 -20 1 -20 -5 0 -7 -5 -4 -10 4 -6 10 -8 14 -6 4 3
13 -5 21 -17 11 -19 11 -20 -1 -10 -12 10 -15 8 -15 -7 0 -11 2 -17 4 -15 5 5
32 -21 32 -30 0 -3 -5 -3 -10 0 -6 4 -5 -4 1 -19 7 -14 16 -23 21 -19 6 3 5
-4 -1 -15 -13 -25 -14 -35 -3 -28 5 3 9 -14 10 -36 1 -23 8 -45 15 -50 9 -6 8
-8 -3 -8 -12 0 -13 -2 -1 -9 11 -7 11 -9 0 -14 -10 -4 -10 -6 -1 -6 6 -1 12
-7 12 -15 0 -8 -6 -17 -12 -19 -10 -4 -10 -6 0 -6 13 -1 17 -31 4 -31 -5 0 -9
-7 -9 -15 0 -18 13 -20 20 -2 4 9 6 9 6 -1 1 -7 -6 -15 -14 -18 -14 -6 -13 -8
2 -20 17 -12 16 -13 -6 -9 -22 4 -23 3 -7 -14 15 -17 15 -20 1 -34 -11 -11
-12 -18 -4 -23 8 -5 6 -10 -6 -17 -14 -8 -15 -11 -4 -18 12 -7 12 -9 0 -9 -11
0 -9 -4 5 -15 16 -13 16 -14 2 -9 -17 6 -22 -3 -19 -32 1 -7 -6 -14 -14 -18
-9 -3 -13 -10 -10 -16 10 -16 15 -50 7 -49 -4 1 -16 1 -27 0 -17 -1 -18 -3 -5
-11 13 -9 13 -12 0 -23 -9 -6 -15 -22 -14 -35 1 -16 -2 -20 -11 -12 -9 8 -12
4 -9 -15 2 -20 -1 -24 -10 -15 -10 8 -12 5 -8 -15 2 -15 0 -25 -7 -25 -6 0
-11 5 -11 12 0 6 -3 8 -6 5 -4 -4 -1 -14 6 -22 11 -13 11 -16 -1 -13 -9 2 -14
-5 -13 -19 0 -19 -2 -21 -15 -10 -10 8 -13 8 -8 0 4 -6 1 -14 -5 -16 -9 -4 -8
-6 2 -7 8 0 2 -8 -15 -16 -16 -8 -22 -12 -13 -10 11 3 15 0 12 -9 -3 -8 -12
-11 -20 -8 -10 4 -12 0 -8 -13 4 -11 4 -16 -1 -12 -4 4 -14 0 -22 -10 -8 -9
-11 -11 -7 -3 5 10 3 12 -5 7 -9 -6 -9 -11 -1 -21 10 -12 8 -13 -10 -10 -19 4
-20 2 -8 -12 7 -9 9 -14 3 -12 -13 7 -46 -27 -37 -37 4 -4 1 -3 -7 1 -10 6
-13 4 -9 -7 4 -8 0 -15 -8 -15 -7 0 -11 5 -7 11 3 6 -6 -1 -19 -16 -14 -15
-29 -24 -34 -20 -4 4 -2 -2 6 -12 10 -13 10 -17 3 -12 -7 4 -13 2 -13 -3 0 -6
-7 -11 -15 -11 -8 0 -19 -9 -25 -20 -6 -11 -16 -17 -22 -14 -7 5 -9 2 -6 -8 4
-8 0 -15 -8 -15 -7 0 -10 5 -7 10 4 6 1 7 -6 3 -7 -5 -10 -15 -7 -23 4 -8 1
-11 -5 -8 -6 4 -16 0 -22 -9 -7 -9 -22 -18 -35 -19 -12 0 -22 -8 -22 -15 0
-11 3 -12 14 -3 10 8 16 9 21 1 4 -6 3 -10 -2 -9 -4 1 -11 0 -15 -1 -17 -5
-29 -8 -49 -9 -11 0 -17 -5 -14 -11 3 -6 -4 -10 -17 -11 -13 0 -18 -3 -11 -5
7 -3 9 -12 6 -21 -5 -13 -3 -14 16 -4 12 7 27 9 34 5 7 -5 7 -1 -2 9 -13 16
-12 17 12 8 21 -8 25 -7 21 4 -4 10 0 13 15 10 12 -2 19 0 16 4 -2 5 6 16 20
25 23 15 24 15 19 -1 -4 -12 1 -10 16 7 12 14 19 20 16 13 -7 -13 19 -12 31 2
4 4 2 5 -4 1 -7 -4 -13 -3 -13 2 0 15 28 22 34 9 2 -7 5 -3 5 9 1 11 8 21 16
21 11 0 12 -4 4 -16 -7 -9 0 -3 15 12 14 16 31 25 36 22 6 -3 10 2 10 12 0 15
2 16 10 3 8 -13 11 -12 16 6 4 15 12 20 30 18 13 -1 22 2 18 7 -3 5 0 9 6 9 6
0 9 4 5 9 -3 6 4 8 15 6 15 -3 24 3 30 18 5 12 9 18 9 13 1 -6 8 -1 17 10 8
10 12 12 8 4 -7 -13 -5 -13 9 -1 9 7 14 17 11 22 -3 5 2 6 10 3 11 -4 16 0 16
12 0 16 2 17 10 4 8 -12 10 -11 10 8 0 16 5 22 18 20 9 -2 16 2 15 9 -2 7 6
10 16 8 12 -2 18 2 17 13 -1 11 6 17 20 16 14 0 20 4 17 13 -3 7 -10 10 -16 6
-6 -3 -7 -1 -3 6 6 9 11 9 22 0 12 -10 13 -9 7 7 -6 17 -5 17 10 5 15 -12 17
-12 11 4 -5 12 -4 16 3 12 6 -4 10 -1 9 6 0 6 2 13 6 15 4 1 18 12 31 25 16
15 20 26 14 35 -7 9 -6 11 7 6 10 -4 16 -1 16 9 0 9 5 19 12 23 7 4 8 3 4 -4
-4 -7 -5 -12 -2 -12 6 0 37 57 35 66 0 3 2 8 5 11 3 4 6 1 6 -5 0 -7 4 -12 8
-12 10 0 9 30 -1 47 -4 6 -2 15 4 19 8 4 9 3 5 -4 -4 -7 -1 -12 8 -12 10 0 13
6 10 15 -4 9 0 15 10 15 9 0 16 5 16 11 0 5 -4 8 -9 4 -5 -3 -13 0 -17 6 -4 7
-3 9 3 6 6 -4 19 5 28 19 9 15 12 23 6 20 -20 -13 -12 5 12 25 12 10 17 18 10
19 -7 0 -10 7 -7 15 4 8 11 12 16 9 6 -4 5 2 -1 14 -13 24 -15 43 -2 24 7 -11
9 -11 14 2 4 9 1 16 -6 16 -8 0 -7 3 2 9 13 8 13 12 0 27 -9 11 -9 15 -1 10 7
-4 12 -2 12 4 0 6 6 8 13 5 6 -4 1 2 -12 13 -18 14 -21 21 -11 27 9 5 11 4 6
-3 -4 -7 -3 -12 3 -12 17 0 18 25 2 38 -14 12 -14 13 3 7 20 -6 20 -6 0 16
-10 12 -14 19 -7 16 6 -4 14 -3 18 3 3 5 0 10 -8 10 -9 0 -12 9 -9 31 3 20 0
34 -9 40 -8 5 -9 9 -3 9 6 0 11 7 11 15 0 8 -4 12 -9 9 -8 -5 -12 9 -8 40 1
13 -2 16 -12 10 -10 -6 -10 -4 1 9 13 16 8 22 -13 18 -5 -1 -3 6 5 15 11 14
11 16 0 10 -10 -7 -12 -3 -6 14 5 17 4 21 -6 15 -9 -6 -11 -3 -6 9 4 11 -2 26
-17 41 -15 15 -20 26 -13 29 7 2 2 5 -10 5 -13 1 -23 6 -23 12 0 5 5 7 11 3 7
-4 10 -1 7 7 -3 8 -10 14 -15 14 -6 0 -15 4 -20 9 -5 5 -3 6 5 2 20 -12 14 5
-9 25 -14 12 -19 25 -15 35 6 15 4 15 -11 3 -15 -12 -16 -12 -10 4 4 11 3 16
-3 12 -6 -3 -10 -1 -10 5 0 7 -6 10 -13 7 -8 -3 -14 1 -15 9 -1 8 -3 21 -4 29
-1 8 -5 12 -10 9 -4 -3 -8 0 -8 5 0 6 -7 11 -16 11 -8 0 -12 5 -9 10 3 6 1 10
-5 10 -6 0 -8 5 -4 12 5 8 2 9 -11 4 -15 -5 -16 -4 -5 9 11 13 11 16 -1 13 -8
-2 -17 -7 -21 -13 -4 -5 -8 1 -8 14 0 19 -4 22 -21 18 -12 -3 -18 -3 -15 0 3
4 -2 16 -11 27 l-18 21 25 -20 25 -20 -18 22 c-11 12 -25 19 -33 16 -9 -3 -14
1 -14 12 0 10 -5 15 -13 12 -8 -3 -27 6 -43 20 l-29 25 35 -22 35 -22 -30 26
c-16 14 -36 24 -42 21 -12 -4 -17 7 -15 26 1 4 -8 4 -20 1 -14 -3 -19 -1 -14
6 6 11 -20 18 -47 13 -5 -1 -6 3 -2 9 3 6 11 8 16 5 15 -10 10 2 -8 16 -11 10
-14 10 -9 2 4 -7 2 -13 -3 -13 -6 0 -11 5 -11 10 0 6 -5 10 -11 10 -5 0 -7 -5
-3 -12 4 -7 3 -8 -4 -4 -6 4 -8 14 -5 24 3 9 3 14 -2 10 -4 -4 -15 -2 -23 5
-11 8 -14 8 -9 0 4 -6 2 -15 -4 -19 -7 -4 -9 -3 -5 4 3 6 -3 17 -14 25 -11 7
-17 18 -12 23 4 4 -2 2 -12 -6 -11 -8 -17 -10 -14 -5 3 6 -8 21 -25 35 -17 14
-28 19 -24 13 5 -9 2 -13 -8 -13 -11 0 -15 5 -12 14 4 10 1 13 -8 10 -14 -6
-48 19 -40 28 3 3 -2 5 -10 5 -11 0 -12 -4 -5 -11 13 -13 13 -26 -2 -26 -6 0
-9 3 -5 6 7 8 -17 34 -31 34 -6 0 -12 3 -15 8 -2 4 -2 2 -1 -5z m159 -73 c3
-5 1 -10 -4 -10 -6 0 -11 5 -11 10 0 6 2 10 4 10 3 0 8 -4 11 -10z m670 -598
c-3 -3 -11 0 -18 7 -9 10 -8 11 6 5 10 -3 15 -9 12 -12z"/>
<path d="M7470 5366 c0 -2 7 -9 15 -16 9 -7 15 -8 15 -2 0 5 -7 12 -15 16 -8
3 -15 4 -15 2z"/>
<path d="M1333 5235 c0 -8 4 -12 9 -9 5 3 6 10 3 15 -9 13 -12 11 -12 -6z"/>
<path d="M836 5203 c-6 -14 -5 -15 5 -6 7 7 10 15 7 18 -3 3 -9 -2 -12 -12z"/>
<path d="M1049 5003 c-13 -16 -12 -17 4 -4 16 13 21 21 13 21 -2 0 -10 -8 -17
-17z"/>
<path d="M8175 4710 c3 -5 8 -10 11 -10 2 0 4 5 4 10 0 6 -5 10 -11 10 -5 0
-7 -4 -4 -10z"/>
<path d="M8226 4602 c-3 -5 1 -9 9 -9 8 0 12 4 9 9 -3 4 -7 8 -9 8 -2 0 -6 -4
-9 -8z"/>
<path d="M7835 3649 c-4 -6 -5 -12 -2 -15 2 -3 7 2 10 11 7 17 1 20 -8 4z"/>
<path d="M1316 3557 c3 -10 9 -15 12 -12 3 3 0 11 -7 18 -10 9 -11 8 -5 -6z"/>
<path d="M926 3517 c3 -10 9 -15 12 -12 3 3 0 11 -7 18 -10 9 -11 8 -5 -6z"/>
<path d="M7781 3396 c-9 -11 -8 -15 5 -20 22 -8 24 -8 24 8 0 21 -16 28 -29
12z"/>
<path d="M1250 3395 c0 -5 5 -17 10 -25 5 -8 10 -10 10 -5 0 6 -5 17 -10 25
-5 8 -10 11 -10 5z"/>
<path d="M7758 3363 c7 -3 16 -2 19 1 4 3 -2 6 -13 5 -11 0 -14 -3 -6 -6z"/>
<path d="M1770 3306 c0 -2 8 -10 18 -17 15 -13 16 -12 3 4 -13 16 -21 21 -21
13z"/>
<path d="M7105 3239 c-4 -6 -5 -12 -2 -15 2 -3 7 2 10 11 7 17 1 20 -8 4z"/>
<path d="M2033 3185 c0 -8 4 -12 9 -9 5 3 6 10 3 15 -9 13 -12 11 -12 -6z"/>
<path d="M3476 2852 c-3 -5 1 -9 9 -9 8 0 12 4 9 9 -3 4 -7 8 -9 8 -2 0 -6 -4
-9 -8z"/>
<path d="M3636 2833 c-6 -14 -5 -15 5 -6 7 7 10 15 7 18 -3 3 -9 -2 -12 -12z"/>
<path d="M3786 2822 c-3 -5 1 -9 9 -9 8 0 12 4 9 9 -3 4 -7 8 -9 8 -2 0 -6 -4
-9 -8z"/>
</g>
</svg>
